<svg
  xmlns="http://www.w3.org/2000/svg"
  viewBox="0 0 192.000000 192.000000"
  width="192.000000pt"
  height="192.000000pt"
  preserveAspectRatio="xMidYMid meet"
>
  <g 
    transform="translate(0.000000,192.000000) scale(0.100000,-0.100000)" 
    fill="currentColor" 
    stroke="none"
  >
    <path d="M891 1629 c-40 -72 -70 -134 -66 -137 9 -10 39 30 91 121 25 42 48
        77 52 77 5 0 34 -45 66 -100 32 -55 64 -100 72 -100 8 0 14 1 14 3 0 8 -133
        243 -144 255 -9 10 -27 -15 -85 -119z"
    />
    <path d="M950 1504 c-6 -11 -37 -66 -69 -124 l-58 -105 -374 -5 c-206 -3 -375
        -7 -377 -8 -2 -1 -2 -10 0 -19 4 -23 306 -569 321 -581 7 -6 124 -33 260 -61
        137 -28 257 -56 268 -61 18 -10 19 -23 19 -183 0 -181 4 -217 25 -217 21 0 25
        36 25 218 l0 173 33 13 c17 7 139 35 269 61 130 27 241 51 246 54 15 10 333
        593 326 600 -3 3 -174 7 -379 9 l-374 3 -61 112 c-75 135 -84 147 -100 121z
        m143 -261 c54 -97 96 -180 94 -187 -5 -12 -191 -76 -223 -76 -24 0 -205 58
        -218 70 -8 8 62 144 177 345 48 82 29 99 170 -152z m-317 -26 c8 -8 -51 -130
        -72 -147 -6 -6 -99 20 -244 68 l-234 77 90 6 c125 9 451 6 460 -4z m918 5 c5
        -9 -418 -152 -450 -152 -15 0 -30 18 -57 66 -20 37 -37 73 -37 80 0 12 48 14
        269 14 149 0 272 -4 275 -8z m-1162 -141 c202 -66 376 -125 386 -130 14 -7 21
        -26 25 -69 8 -71 -3 -291 -14 -298 -8 -4 -477 88 -510 101 -17 6 -289 491
        -289 514 0 7 7 10 18 7 9 -3 182 -60 384 -125z m1268 117 c0 -23 -271 -506
        -288 -513 -33 -13 -505 -104 -514 -99 -4 3 -8 84 -8 179 0 167 1 175 21 186
        19 10 763 256 782 258 4 1 7 -4 7 -11z"
    />
    </g>
</svg>
